<?xml version="1.0" encoding="UTF-8"?>
<svg id="Layer_1" data-name="Layer 1" xmlns="http://www.w3.org/2000/svg" viewBox="0 0 273.91 83.85">
  <defs>
    <style>
      .cls-1 {
        fill: none;
        stroke: #ffff35;
        stroke-miterlimit: 10;
      }
    </style>
  </defs>
  <path class="cls-1" d="m31.8,83.35c-6.15,0-11.57-1.1-16.27-3.3-4.71-2.2-8.38-5.35-11.04-9.45-2.66-4.1-3.98-9.03-3.98-14.79v-3.19h14.79v3.19c0,4.78,1.48,8.36,4.44,10.75,2.96,2.39,6.98,3.58,12.06,3.58s9.01-1.02,11.55-3.07c2.54-2.05,3.81-4.67,3.81-7.85,0-2.2-.63-3.98-1.88-5.35-1.25-1.37-3.07-2.48-5.46-3.36-2.39-.87-5.29-1.69-8.71-2.45l-2.62-.57c-5.46-1.21-10.15-2.75-14.06-4.61-3.91-1.86-6.9-4.31-8.99-7.34-2.09-3.03-3.13-6.98-3.13-11.84s1.16-9.01,3.47-12.46c2.31-3.45,5.58-6.11,9.79-7.97,4.21-1.86,9.16-2.79,14.85-2.79s10.75.97,15.19,2.9,7.93,4.82,10.47,8.65c2.54,3.83,3.81,8.63,3.81,14.4v3.41h-14.79v-3.41c0-3.03-.59-5.48-1.76-7.34-1.18-1.86-2.86-3.22-5.06-4.1-2.2-.87-4.82-1.31-7.85-1.31-4.55,0-7.91.85-10.07,2.56s-3.24,4.04-3.24,7c0,1.97.51,3.64,1.54,5.01,1.02,1.37,2.56,2.5,4.61,3.41,2.05.91,4.67,1.71,7.85,2.39l2.62.57c5.69,1.21,10.64,2.77,14.85,4.67,4.21,1.9,7.49,4.4,9.84,7.51,2.35,3.11,3.53,7.09,3.53,11.95s-1.23,9.12-3.7,12.8c-2.47,3.68-5.96,6.56-10.47,8.65-4.51,2.09-9.84,3.13-15.99,3.13Z"/>
  <path class="cls-1" d="m73.11,81.76V2.09h14.34v44.04h2.05l18.66-20.83h18.66l-26.06,27.31,26.97,29.13h-18.44l-19.8-22.42h-2.05v22.42h-14.34Z"/>
  <path class="cls-1" d="m144.01,18.71c-2.58,0-4.76-.83-6.54-2.5-1.78-1.67-2.67-3.87-2.67-6.6s.89-4.93,2.67-6.6c1.78-1.67,3.96-2.5,6.54-2.5s4.85.84,6.6,2.5c1.74,1.67,2.62,3.87,2.62,6.6s-.87,4.93-2.62,6.6c-1.75,1.67-3.95,2.5-6.6,2.5Zm-7.17,63.05V25.31h14.34v56.45h-14.34Z"/>
  <path class="cls-1" d="m166.66,81.76V2.09h14.34v79.66h-14.34Z"/>
  <path class="cls-1" d="m196.47,81.76V2.09h14.34v79.66h-14.34Z"/>
  <path class="cls-1" d="m249.73,83.35c-7.36,0-13.39-1.59-18.1-4.78-4.71-3.19-7.55-7.74-8.54-13.66l13.2-3.42c.53,2.66,1.42,4.74,2.67,6.26,1.25,1.52,2.81,2.6,4.67,3.24,1.86.65,3.89.97,6.09.97,3.34,0,5.8-.59,7.4-1.76,1.59-1.17,2.39-2.63,2.39-4.38s-.76-3.09-2.28-4.04c-1.52-.95-3.95-1.73-7.28-2.33l-3.19-.57c-3.95-.76-7.55-1.8-10.81-3.13-3.26-1.33-5.88-3.17-7.85-5.52-1.97-2.35-2.96-5.39-2.96-9.1,0-5.61,2.05-9.92,6.15-12.92,4.1-3,9.48-4.5,16.16-4.5,6.3,0,11.53,1.41,15.71,4.21,4.17,2.81,6.9,6.49,8.19,11.04l-13.32,4.1c-.61-2.88-1.84-4.93-3.7-6.15-1.86-1.21-4.15-1.82-6.89-1.82s-4.82.47-6.26,1.42c-1.44.95-2.16,2.26-2.16,3.93,0,1.82.76,3.17,2.28,4.04,1.52.87,3.57,1.54,6.15,1.99l3.19.57c4.25.76,8.1,1.76,11.55,3.02,3.45,1.25,6.18,3.04,8.19,5.35,2.01,2.31,3.02,5.44,3.02,9.39,0,5.92-2.14,10.49-6.43,13.71-4.29,3.23-10.03,4.84-17.24,4.84Z"/>
</svg>