<?xml version="1.0" encoding="UTF-8"?>
<svg id="Layer_1" data-name="Layer 1" xmlns="http://www.w3.org/2000/svg" viewBox="0 0 237.36 143.75">
  <defs>
    <style>
      .cls-1 {
        fill: none;
        stroke: #fff;
        stroke-miterlimit: 10;
        stroke-width: 2px;
      }
    </style>
  </defs>
  <path class="cls-1" d="m234.47,69.41c-12.92,1.07-25.93,1.76-38.2,5.64-3.62,1.15-7.22,2.51-9.86,4.84-5.53,4.89-5.77,9.81-1.56,16.61,3.39,5.47,8.63,9.68,13.63,14.05.45.4,1.09.71,1.12,1.39-1.04.53-2.01.22-2.97-.19-8.42-3.6-17.35-6.01-26.47-7.64-10.11-1.81-20.27-2.19-29.22,3.14-4.23,2.52-6.99,5.97-9.12,10.02-3.66,6.95-3.85,14.25-3.98,21.73-.91-2.16-1.82-4.31-2.73-6.47-2.32-5.48-5.42-10.63-10.79-14.46-7.97-5.68-16.54-4.66-25.03-1.39-8.32,3.2-15.06,8.22-21.31,13.71-1.84,1.62-4.02,2.97-5.5,4.91-.5.66-1.18,1.94-2.29,1.28-.89-.53.13-1.65.6-2.28,3.09-4.17,4.93-8.76,6.17-13.52,1.68-6.45.64-12.65-4.36-17.97-2.88-3.06-6.92-5.1-11.16-6.78-11.24-4.44-23.16-5.02-35.17-5.22-4.11-.07-8.23.56-13.05-.24,2.46-1.22,4.61-1.67,6.68-2.3,8.81-2.7,17.19-6.04,23.72-11.91,6.88-6.18,8.16-13.43,4.42-21.22-4.62-9.61-12.77-17.03-22.4-23.32-.92-.6-.81-1.52-1.7-2.02,7.4,1.98,14.71,4.12,22.26,5.52,9.14,1.69,18.24,2.94,27.56,1.06,9.08-1.84,14.36-8.78,13.22-17.27-.67-5.02-1.72-9.8-4-14.45-.2-.41-.32-.86.22-1.03.84-.26,1.09.33,1.49.83,3.24,4.02,6.72,7.9,10.95,11.23,5.14,4.04,10.73,7.46,17.89,8.32,9.5,1.14,16.88-2.41,23.3-7.6,5.03-4.07,9.72-8.44,12.78-13.86.36-.64.88-1.83,1.89-1.5,1.31.43.47,1.56.28,2.34-1.09,4.48-1.86,8.96-.74,13.57,2.17,8.88,8.3,13.46,19.08,14.23,10.15.73,19.77-1.23,29.3-3.6,6.37-1.58,12.5-3.7,18.63-5.8,1.15-.4,2.29-.81,3.67.04-7.43,3.39-13.66,7.96-19.72,12.71-4.25,3.34-7.44,7.32-9.66,11.83-1.6,3.26.37,8.49,3.88,11.18,5.54,4.24,12.33,6.18,19.29,7.82,9.55,2.26,19.36,2.96,29.05,3.96l-.09.06Z"/>
</svg>